<svg width="512" height="512" viewBox="0 0 512 512" style="color:#000000" xmlns="http://www.w3.org/2000/svg" class="h-full w-full"><rect width="512" height="512" x="0" y="0" rx="256" fill="transparent" stroke="transparent" stroke-width="0" stroke-opacity="100%" paint-order="stroke"></rect><svg width="512px" height="512px" viewBox="0 0 24 24" fill="#000000" x="0" y="0" role="img" style="display:inline-block;vertical-align:middle" xmlns="http://www.w3.org/2000/svg"><g fill="#000000"><path fill="currentColor" d="M12 3.75a3.75 3.75 0 1 0 0 7.5a3.75 3.75 0 0 0 0-7.5Zm-4 9.5A3.75 3.75 0 0 0 4.25 17v1.188c0 .754.546 1.396 1.29 1.517c4.278.699 8.642.699 12.92 0a1.537 1.537 0 0 0 1.29-1.517V17A3.75 3.75 0 0 0 16 13.25h-.34c-.185 0-.369.03-.544.086l-.866.283a7.251 7.251 0 0 1-4.5 0l-.866-.283a1.752 1.752 0 0 0-.543-.086H8Z"/></g></svg></svg>