<svg width="275" height="275" viewBox="0 0 275 275" fill="none" xmlns="http://www.w3.org/2000/svg">
<rect width="275" height="275" fill="white"/>
<path d="M174.4 71.8C183.467 71.8 191.333 73.2 198 76C204.8 78.6667 209.933 82.4 213.4 87.2C217 91.8667 218.8 97.2667 218.8 103.4C218.8 106.867 218.333 110.067 217.4 113C213.533 126.467 202.4 135 184 138.6C190.4 140.467 195.467 143.6 199.2 148C202.933 152.267 204.8 157.6 204.8 164C204.8 166.933 204.267 170.4 203.2 174.4C200.267 184.8 194.333 192.533 185.4 197.6C176.6 202.533 164.067 205 147.8 205H64.6C61.8 205 59.6667 204.533 58.2 203.6C56.6 202.667 55.8 201.4 55.8 199.8C55.8 199 56 198.133 56.4 197.2C56.9333 195.733 57.8 194.6 59 193.8C60.2 193 60.9333 192.533 61.2 192.4C63.3333 191.067 65.0667 189.733 66.4 188.4C67.7333 186.933 68.8667 184.6 69.8 181.4L94.2 95.2C94.7333 93.4667 95 91.8 95 90.2C95 88.7333 94.7333 87.5333 94.2 86.6C93.8 85.5333 93.2 84.3333 92.4 83C91.2 81.2667 90.6 79.8667 90.6 78.8C90.6 78.4 90.7333 77.6667 91 76.6C91.5333 74.8667 92.6667 73.6667 94.4 73C96.2667 72.2 99.0667 71.8 102.8 71.8H174.4ZM165.4 108.4C166.333 105.467 166.8 102.733 166.8 100.2C166.8 93.2667 162.867 89.8 155 89.8H146L135.4 127.2H144.2C149.8 127.2 154.2 125.867 157.4 123.2C160.733 120.4 163.4 115.467 165.4 108.4ZM150.8 167.2C151.733 164 152.2 161.067 152.2 158.4C152.2 151.2 148.067 147.6 139.8 147.6H129.8L118.4 187H128.6C134.333 187 138.933 185.6 142.4 182.8C145.867 179.867 148.667 174.667 150.8 167.2Z" fill="black"/>
</svg>
